<?xml version="1.0" encoding="utf-8"?>
<!-- Generator: Adobe Illustrator 25.2.1, SVG Export Plug-In . SVG Version: 6.00 Build 0)  -->
<svg version="1.1" id="Layer_1" xmlns="http://www.w3.org/2000/svg" xmlns:xlink="http://www.w3.org/1999/xlink" x="0px" y="0px"
	 viewBox="0 0 500 500" style="enable-background:new 0 0 500 500;" xml:space="preserve">
<style type="text/css">
	.st0{fill:#29ABE2;}
</style>
<g>
	<path class="st0" d="M337.98,352.63c8.08,0,14.64-6.55,14.64-14.64v-43.92h73.19c8.08,0,14.64-6.55,14.64-14.64V44.24
		c0-8.08-6.55-14.64-14.64-14.64H264.78V14.97c0-8.08-6.55-14.64-14.64-14.64c-8.08,0-14.64,6.55-14.64,14.64V29.6H74.48
		c-8.08,0-14.64,6.55-14.64,14.64v235.2c0,8.08,6.55,14.64,14.64,14.64h73.19V338c0,8.08,6.55,14.64,14.64,14.64h73.19v66.34
		l-81.31,54.21c-6.73,4.49-8.55,13.57-4.06,20.3c4.49,6.73,13.58,8.55,20.3,4.06l65.07-43.38v31.2c0,8.08-11.4,14.64-3.32,14.64
		c8.08,0,32.59-6.55,32.59-14.64v-31.2l65.07,43.38c6.72,4.48,15.81,2.68,20.3-4.06c4.49-6.73,2.67-15.82-4.06-20.3l-81.31-54.21
		v-66.34H337.98z M89.12,58.88h322.05V264.8H89.12V58.88z M176.95,294.08h146.39v29.28H176.95V294.08z"/>
	<path class="st0" d="M235.51,235.52c24.22,0,43.92-19.7,43.92-43.92v-48.98l58.56-19.52v39.22c0,8.07-6.57,14.64-14.64,14.64
		c-8.08,0-14.64,6.55-14.64,14.64c0,8.08,6.55,14.64,14.64,14.64c24.22,0,43.92-19.7,43.92-43.92V102.8c0-4.71-2.26-9.12-6.08-11.88
		c-3.82-2.75-8.72-3.5-13.19-2.01l-87.83,29.28c-5.98,1.99-10.01,7.59-10.01,13.89v59.53c0,8.07-6.57,14.64-14.64,14.64
		c-8.08,0-14.64,6.55-14.64,14.64C220.87,228.97,227.42,235.52,235.51,235.52z"/>
	<path class="st0" d="M191.59,162.33v-44.89h14.64c8.08,0,14.64-6.55,14.64-14.64s-6.55-14.64-14.64-14.64h-29.28
		c-8.08,0-14.64,6.55-14.64,14.64v59.53c0,8.07-6.57,14.64-14.64,14.64c-8.08,0-14.64,6.55-14.64,14.64
		c0,8.08,6.55,14.64,14.64,14.64C171.89,206.25,191.59,186.55,191.59,162.33z"/>
</g>
</svg>
