<svg id="Capa_1" data-name="Capa 1" xmlns="http://www.w3.org/2000/svg" viewBox="0 0 390 512"><path d="M346,361a15,15,0,0,0,15-15V301h75a15,15,0,0,0,15-15V45a15,15,0,0,0-15-15H271V15a15,15,0,0,0-30,0V30H76A15,15,0,0,0,61,45V286a15,15,0,0,0,15,15h75v45a15,15,0,0,0,15,15h75v68l-83.32,55.55a15,15,0,0,0,16.64,25L241,465v32a15,15,0,0,0,30,0V465l66.68,44.45a15,15,0,0,0,16.64-25L271,429V361ZM91,60H421V271H91Zm90,241H331v30H181Z" transform="translate(-61)"/><path d="M241,241a45.05,45.05,0,0,0,45-45V145.81l60-20V166a15,15,0,0,1-15,15,15,15,0,0,0,0,30,45.05,45.05,0,0,0,45-45V105a15,15,0,0,0-19.74-14.23l-90,30A15,15,0,0,0,256,135v61a15,15,0,0,1-15,15,15,15,0,0,0,0,30Z" transform="translate(-61)"/><path d="M196,166V120h15a15,15,0,0,0,0-30H181a15,15,0,0,0-15,15v61a15,15,0,0,1-15,15,15,15,0,0,0,0,30A45.05,45.05,0,0,0,196,166Z" transform="translate(-61)"/></svg>