<svg id="Layer_1" data-name="Layer 1" xmlns="http://www.w3.org/2000/svg" viewBox="0 0 650.55 139.14"><defs><style>.cls-1,.cls-2{fill:#fff;}.cls-2{font-size:60px;font-family:MyanmarSangamMN, Myanmar Sangam MN;letter-spacing:-0.02em;}</style></defs><path class="cls-1" d="M150.71,282.24a4.07,4.07,0,0,0,4.08-4.07V265.94h20.38a4.08,4.08,0,0,0,4.08-4.08V196.37a4.08,4.08,0,0,0-4.08-4.08H130.33v-4.07a4.08,4.08,0,1,0-8.15,0v4.07H77.34a4.08,4.08,0,0,0-4.07,4.08v65.49a4.08,4.08,0,0,0,4.07,4.08H97.72v12.23a4.08,4.08,0,0,0,4.08,4.07h20.38v18.47l-22.64,15.1a4.07,4.07,0,0,0,4.52,6.78l18.12-12.08v8.69c0,2.25-3.17,4.08-.92,4.08s9.07-1.83,9.07-4.08v-8.69l18.12,12.08a4.08,4.08,0,1,0,4.53-6.78l-22.65-15.1V282.24Zm-69.29-81.8H171.1v57.34H81.42Zm24.46,65.5h40.76v8.15H105.88Z" transform="translate(-73.27 -184.14)"/><path class="cls-1" d="M122.18,249.63a12.24,12.24,0,0,0,12.23-12.23V223.76l16.3-5.43v10.92a4.08,4.08,0,0,1-4.07,4.08,4.08,4.08,0,1,0,0,8.15,12.25,12.25,0,0,0,12.23-12.23V212.67a4.08,4.08,0,0,0-5.37-3.86L129,217a4.07,4.07,0,0,0-2.78,3.87V237.4a4.08,4.08,0,0,1-4.08,4.08,4.08,4.08,0,1,0,0,8.15Z" transform="translate(-73.27 -184.14)"/><path class="cls-1" d="M110,229.25v-12.5H114a4.08,4.08,0,0,0,0-8.15h-8.15a4.07,4.07,0,0,0-4.08,4.07v16.58a4.08,4.08,0,0,1-4.08,4.08,4.08,4.08,0,0,0,0,8.15A12.24,12.24,0,0,0,110,229.25Z" transform="translate(-73.27 -184.14)"/><text class="cls-2" transform="translate(122.25 93.29)">COUNTERPOINTER</text></svg>